<?xml version="1.0" standalone="no"?>
<!DOCTYPE svg PUBLIC "-//W3C//DTD SVG 20010904//EN"
 "http://www.w3.org/TR/2001/REC-SVG-20010904/DTD/svg10.dtd">
<svg version="1.0" xmlns="http://www.w3.org/2000/svg"
 width="1281.000000pt" height="1281.000000pt" viewBox="0 0 1281.000000 1281.000000"
 preserveAspectRatio="xMidYMid meet">
<metadata>
Created by potrace 1.11, written by Peter Selinger 2001-2013
</metadata>
<g transform="translate(0.000000,1281.000000) scale(0.100000,-0.100000)"
fill="#000000" stroke="none">
<path d="M10734 10609 c-158 -83 -393 -284 -651 -560 -251 -266 -348 -371
-355 -384 -4 -7 -182 -183 -395 -391 -316 -308 -407 -392 -489 -446 l-101 -68
-74 25 c-178 61 -555 141 -870 184 -311 43 -954 78 -1219 66 -355 -16 -908
-73 -1170 -121 -576 -106 -1047 -324 -1227 -568 l-43 -58 -2 48 c-1 44 -2 41
-8 -21 -4 -38 -14 -101 -23 -140 -9 -38 -17 -100 -17 -136 0 -116 53 -366 129
-602 22 -67 52 -165 67 -217 39 -138 103 -305 160 -424 8 -16 14 -34 14 -39 0
-6 6 -18 14 -26 7 -9 26 -41 42 -71 64 -124 240 -371 343 -484 60 -64 184
-180 250 -232 14 -10 35 -29 48 -41 13 -12 23 -19 23 -15 0 4 4 2 8 -3 28 -40
351 -225 487 -279 284 -114 514 -172 830 -210 42 -5 132 -12 280 -22 49 -3 91
-6 91 -7 1 -1 14 -114 28 -252 54 -509 121 -847 198 -998 24 -49 93 -124 129
-143 37 -19 103 -18 145 2 48 23 123 108 177 201 97 167 247 573 318 863 18
74 34 136 35 138 0 1 25 -9 55 -23 30 -14 66 -25 80 -25 43 0 74 51 51 87 -4
6 -31 20 -60 31 -107 41 -100 26 -95 224 6 196 -8 288 -52 364 -41 70 -116 95
-166 55 -48 -37 -248 -85 -452 -106 -70 -8 -131 -16 -136 -19 -5 -3 -2 -24 5
-46 8 -22 26 -104 40 -183 14 -78 28 -144 29 -145 7 -8 234 41 336 72 l109 33
34 -71 c19 -39 55 -93 79 -121 l44 -49 -17 -76 c-63 -279 -195 -661 -308 -890
-48 -97 -129 -196 -154 -188 -18 6 -48 61 -59 106 -19 79 -40 245 -79 613 -22
211 -50 447 -61 524 -48 333 -117 573 -193 675 -33 43 -101 90 -132 90 -13 0
-26 4 -29 10 -4 6 15 10 50 10 74 0 130 -28 179 -90 45 -57 30 -57 238 2 380
108 713 274 993 496 234 187 464 472 604 750 41 82 67 107 55 55 -21 -95 -68
-266 -85 -313 -11 -30 -22 -62 -24 -70 -11 -44 -134 -303 -147 -308 -5 -2 -8
-10 -8 -18 0 -8 -5 -14 -12 -14 -6 0 -8 -3 -5 -6 4 -4 -7 -24 -23 -44 -17 -21
-30 -43 -30 -48 0 -6 -6 -15 -13 -19 -8 -4 -22 -21 -32 -38 -10 -16 -27 -39
-37 -50 -10 -11 -29 -34 -42 -51 -21 -25 -30 -30 -59 -26 -59 7 -148 -17 -179
-48 -36 -36 -36 -65 1 -97 l29 -26 -32 -27 c-62 -54 -232 -158 -245 -151 -2 2
-7 -2 -10 -8 -4 -5 -26 -19 -50 -29 l-43 -20 36 -12 c19 -6 47 -25 60 -41 28
-32 66 -144 66 -190 0 -16 3 -29 6 -29 3 0 47 24 97 54 260 153 522 382 731
639 286 352 529 873 606 1301 29 159 45 427 30 500 -34 167 -173 329 -385 450
l-73 42 76 91 c113 134 491 495 631 603 68 52 222 165 344 250 274 192 439
316 573 432 128 110 367 359 388 403 9 18 16 55 16 82 0 61 -22 85 -103 113
-83 29 -143 26 -213 -11z m241 -50 c17 -26 -8 -80 -73 -155 -36 -44 -73 -87
-82 -97 -57 -70 -479 -419 -890 -737 -289 -224 -372 -295 -615 -530 -305 -295
-354 -349 -422 -464 l-24 -41 6 35 c3 19 22 68 41 108 38 78 135 186 389 433
119 114 176 166 350 314 32 28 63 55 69 60 6 6 43 37 81 70 39 32 93 79 120
105 28 25 178 155 335 290 269 231 414 368 575 544 59 64 75 76 102 76 17 0
35 -5 38 -11z m-4369 -1845 c58 -28 56 -100 -3 -126 -16 -7 -31 -16 -34 -21
-3 -4 -26 1 -50 11 -75 33 -89 110 -25 138 41 18 71 17 112 -2z m993 -188 c9
-11 9 -19 -1 -35 -18 -30 -67 -43 -156 -42 -78 1 -241 17 -249 24 -7 7 78 38
142 52 85 19 249 19 264 1z m-2255 -325 c108 -50 93 -65 -34 -35 -77 18 -120
42 -99 55 25 16 68 9 133 -20z m41 -208 l48 -6 -84 -35 c-100 -41 -178 -51
-232 -29 -86 36 -15 72 149 76 39 0 93 -2 119 -6z m2382 -116 c49 -13 57 -34
16 -39 -69 -8 -182 29 -167 54 7 11 80 4 151 -15z m-3335 -374 c37 -24 110
-64 162 -89 82 -40 96 -50 101 -76 4 -16 18 -57 32 -91 90 -225 208 -407 378
-585 48 -51 86 -94 84 -97 -3 -2 -38 17 -79 42 -383 238 -694 601 -835 977
l-26 69 58 -53 c32 -30 88 -73 125 -97z m1918 112 c0 -29 -39 -59 -64 -49 -26
10 -19 33 17 54 41 26 47 25 47 -5z m404 -1645 c-6 -26 -3 -30 14 -30 22 0 31
-23 48 -112 6 -35 4 -38 -17 -38 -72 1 -399 90 -399 109 0 4 30 9 67 10 37 1
70 4 72 7 3 2 10 -9 17 -26 25 -58 114 -30 114 36 0 32 37 74 65 74 22 0 24
-3 19 -30z m1065 -283 c6 -35 11 -106 10 -158 l-1 -94 -15 45 c-18 54 -30 270
-15 270 5 0 15 -28 21 -63z"/>
<path d="M2298 6211 c-69 -44 -99 -102 -109 -214 -13 -137 -46 -268 -83 -324
-55 -84 -131 -118 -200 -89 -34 14 -36 17 -25 37 19 37 4 89 -59 204 -36 65
-78 161 -103 235 -23 69 -43 127 -45 129 -3 3 -34 -24 -70 -60 -47 -46 -77
-87 -107 -148 -39 -79 -42 -89 -42 -170 0 -69 4 -94 22 -127 50 -94 146 -141
266 -131 57 5 77 3 107 -13 21 -11 56 -22 79 -26 l41 -7 -43 -34 c-64 -51
-179 -103 -269 -121 -68 -13 -94 -14 -161 -4 -160 23 -290 114 -408 284 -62
90 -65 95 -53 123 43 99 -36 221 -168 260 -65 19 -196 19 -268 0 -67 -18 -180
-73 -239 -116 l-43 -32 59 -27 c43 -20 73 -43 109 -86 72 -86 102 -113 158
-142 42 -22 64 -27 126 -26 80 0 127 17 187 68 l31 26 52 -80 c66 -101 158
-188 256 -241 l75 -41 -60 -22 c-78 -27 -141 -73 -185 -133 -52 -71 -69 -129
-65 -226 3 -69 10 -94 37 -149 47 -95 144 -184 266 -243 52 -25 97 -45 100
-45 3 0 -10 32 -29 72 -56 116 -47 182 51 398 37 80 39 90 38 175 -1 50 -3 99
-5 110 -4 18 4 21 92 32 115 14 186 38 288 95 90 51 210 165 269 257 53 81
101 205 109 281 3 34 10 63 14 66 5 3 9 17 9 32 0 54 61 122 96 108 48 -19 85
-206 86 -441 1 -169 0 -171 -36 -285 -76 -238 -126 -572 -126 -837 1 -222 22
-336 70 -385 73 -72 177 1 225 158 31 101 62 373 81 697 3 64 10 117 14 117 5
0 22 -17 40 -37 43 -53 83 -186 125 -415 85 -463 139 -629 241 -738 58 -62
126 -92 214 -93 55 -1 74 4 113 26 63 37 98 98 105 183 6 74 -11 104 -58 104
-38 0 -50 -18 -50 -76 0 -102 -70 -152 -147 -105 -69 43 -107 166 -159 520
-55 375 -99 527 -185 640 -22 29 -39 54 -37 56 2 1 31 17 66 34 90 45 203 156
246 241 74 149 49 316 -66 427 -64 63 -127 88 -218 87 -104 -1 -162 -29 -237
-117 -37 -42 -31 -49 -54 68 -43 228 -207 347 -351 256z m649 -332 c77 -29
132 -147 119 -257 -9 -78 -55 -172 -113 -230 -51 -51 -153 -106 -214 -116
l-37 -6 -7 203 -7 204 26 46 c38 64 105 137 141 153 37 16 56 17 92 3z m-467
-1244 c-6 -121 -15 -240 -19 -265 -20 -137 -39 184 -22 385 6 72 19 182 28
245 l18 115 3 -130 c2 -71 -2 -229 -8 -350z"/>
<path d="M12030 6217 c-76 -22 -123 -49 -176 -102 -80 -80 -95 -176 -38 -245
14 -17 24 -37 21 -45 -5 -11 -17 -8 -64 16 -73 37 -143 50 -205 39 -67 -13
-98 -31 -189 -111 l-79 -70 -31 25 c-36 31 -75 33 -212 12 -136 -21 -200 -25
-317 -17 -58 4 -108 5 -113 1 -24 -21 97 -226 171 -290 79 -68 145 -95 232
-95 87 1 133 20 191 82 46 48 67 89 79 155 8 42 20 62 58 101 150 155 248 184
390 116 98 -48 207 -179 256 -310 55 -148 69 -224 63 -359 -6 -123 -29 -276
-47 -309 -6 -9 -31 -74 -56 -146 -25 -71 -58 -152 -71 -180 -67 -132 -175
-263 -194 -233 -12 18 -11 124 1 228 34 298 32 613 -5 720 -28 80 -76 120
-143 120 -73 0 -149 -50 -231 -154 -51 -64 -177 -268 -201 -325 -7 -17 -16
-31 -19 -31 -4 0 -15 24 -24 53 -20 63 -69 132 -108 152 -15 8 -48 15 -73 15
-39 0 -52 -6 -87 -37 -54 -49 -71 -84 -139 -293 -78 -241 -170 -420 -215 -420
-37 0 -55 164 -48 431 6 204 6 206 -16 221 l-22 16 26 26 c26 26 27 31 23 119
-3 81 -6 97 -32 134 -101 151 -384 111 -549 -78 -118 -135 -179 -367 -149
-563 l11 -69 -49 -71 c-28 -39 -63 -86 -80 -105 l-30 -34 0 51 c0 145 -37 378
-71 448 -37 77 -109 91 -191 38 -29 -19 -49 -46 -84 -117 -76 -151 -172 -273
-197 -248 -5 5 -13 47 -18 92 -19 165 26 435 92 559 42 80 87 113 159 118 67
5 116 -16 168 -72 37 -39 65 -45 100 -20 28 19 28 55 1 97 -131 197 -457 157
-625 -78 -95 -134 -136 -282 -133 -481 l2 -121 -41 -84 c-132 -274 -287 -292
-371 -42 -41 121 -48 355 -11 373 8 5 34 16 58 26 52 21 126 99 153 159 43 98
33 213 -23 260 -23 20 -41 25 -82 25 -116 0 -256 -112 -331 -264 -25 -50 -52
-122 -60 -161 -17 -83 -19 -263 -4 -337 19 -90 73 -193 135 -258 79 -83 156
-120 263 -127 96 -7 146 8 221 68 50 39 150 170 150 196 0 18 15 16 31 -4 76
-91 185 -95 287 -8 37 31 111 125 134 170 16 29 16 28 23 -65 4 -52 5 -183 3
-291 l-3 -195 -56 -65 c-210 -243 -391 -514 -489 -731 -118 -261 -146 -443
-87 -559 33 -64 66 -84 141 -84 52 0 76 7 138 38 308 152 516 619 595 1336
l17 156 86 100 c47 55 96 115 109 133 l23 33 29 -43 c39 -60 89 -91 153 -96
86 -7 160 44 236 164 l28 44 22 -71 c30 -92 75 -156 135 -194 94 -58 174 -31
259 89 64 88 109 190 177 398 32 98 65 190 72 205 l15 27 12 -39 c9 -26 14
-127 17 -290 2 -137 6 -260 9 -273 6 -28 66 -56 100 -48 35 9 48 37 89 186 75
278 193 519 325 663 82 90 81 100 44 -333 -37 -447 28 -660 202 -660 112 0
224 120 339 364 172 362 197 662 80 972 -35 94 -104 208 -168 280 -59 65 -66
101 -19 89 112 -30 170 -26 244 19 61 37 112 106 134 185 19 62 49 114 88 150
14 14 26 27 26 31 0 29 -289 50 -370 27z m-1745 -1071 c12 -18 14 -39 10 -87
-6 -67 -3 -79 29 -96 17 -10 16 -11 -15 -18 -91 -20 -100 -34 -155 -230 -45
-160 -84 -249 -131 -297 -62 -64 -94 -20 -101 142 -7 177 36 347 120 472 78
117 203 175 243 114z m-1845 1 c0 -57 -75 -195 -95 -175 -10 10 12 74 47 136
28 50 48 66 48 39z m785 -1524 c-85 -469 -221 -804 -363 -894 -95 -60 -130
-28 -118 108 12 143 120 413 241 599 89 137 253 349 263 339 2 -2 -8 -70 -23
-152z"/>
<path d="M3728 5397 c-229 -79 -369 -304 -371 -597 0 -125 15 -210 56 -302 62
-139 182 -202 286 -148 39 20 118 100 148 151 22 37 29 36 37 -2 12 -60 66
-156 110 -197 112 -103 231 -58 333 126 l40 72 13 -42 c32 -109 101 -211 158
-235 105 -44 179 61 247 352 20 88 40 174 44 190 5 19 10 -21 13 -110 10 -238
65 -440 135 -495 134 -105 313 24 379 273 l18 67 60 0 c139 0 205 72 272 299
l28 93 -27 24 c-59 50 -85 27 -132 -116 -36 -112 -57 -148 -99 -168 -36 -18
-81 -8 -71 16 14 33 18 405 6 478 -22 123 -70 204 -121 204 -70 0 -113 -85
-131 -259 -19 -181 10 -356 76 -461 l27 -42 -18 -72 c-22 -94 -58 -169 -96
-201 -28 -24 -32 -25 -47 -10 -14 13 -17 59 -22 308 -6 287 -15 369 -45 429
-32 62 -112 92 -176 65 -70 -30 -116 -122 -162 -332 -57 -257 -68 -298 -88
-343 l-21 -47 -9 30 c-15 46 -15 352 1 628 l14 248 -22 22 c-31 31 -157 32
-198 1 -27 -20 -29 -27 -40 -150 -7 -71 -12 -194 -11 -274 1 -133 -1 -150 -24
-210 -55 -141 -139 -280 -170 -280 -5 0 -17 17 -26 38 -14 31 -17 82 -20 325
-2 158 -7 287 -10 287 -4 0 -13 4 -21 9 -11 7 -9 14 14 33 26 23 28 29 28 109
1 91 -16 141 -65 186 -62 58 -183 70 -300 30z m234 -150 c6 -13 8 -45 4 -85
-7 -71 7 -101 48 -103 12 0 -2 -6 -31 -13 -83 -20 -100 -36 -124 -119 -61
-211 -93 -306 -116 -347 -92 -157 -149 -106 -147 130 3 280 113 497 282 555
42 15 69 9 84 -18z m1336 -352 c0 -54 -3 -72 -8 -55 -4 14 -8 75 -8 135 1 93
2 101 8 55 5 -30 8 -91 8 -135z"/>
<path d="M6254 5086 c-27 -34 -28 -34 -39 -13 -19 38 -44 32 -97 -23 -68 -71
-102 -146 -96 -215 4 -51 38 -128 81 -188 22 -28 22 -29 2 -40 -38 -21 -117
-102 -143 -146 -20 -35 -26 -57 -26 -106 0 -209 238 -289 456 -154 l50 30 41
-34 c76 -62 115 -71 182 -43 50 21 137 105 133 129 -6 38 -32 43 -72 12 -43
-33 -64 -29 -120 19 l-39 34 36 50 c54 72 77 129 77 189 0 105 -86 151 -186
100 -58 -30 -87 -59 -82 -84 4 -19 43 -24 85 -10 31 11 63 -23 63 -65 0 -36
-28 -100 -46 -105 -9 -3 -120 124 -186 213 -5 7 16 36 60 80 96 98 130 178
111 264 -17 78 -71 119 -176 135 -38 6 -43 4 -69 -29z m1 -129 c63 -10 89 -36
93 -91 3 -49 -16 -93 -58 -131 -21 -19 -21 -19 -45 10 -28 34 -95 157 -95 174
0 7 7 28 16 49 15 37 15 37 32 16 10 -13 34 -24 57 -27z m125 -659 c0 -16 -68
-38 -116 -38 -89 0 -139 52 -139 146 0 50 5 69 28 103 l28 41 99 -121 c55 -67
100 -126 100 -131z"/>
<path d="M6426 3760 c-49 -13 -92 -44 -111 -80 -22 -43 -19 -122 5 -153 26
-33 104 -86 149 -102 41 -14 48 -27 26 -49 -26 -25 -75 -20 -109 12 -18 16
-25 19 -16 7 8 -11 -5 -2 -28 20 l-42 39 0 -88 c0 -74 2 -87 14 -77 20 17 46
2 46 -26 0 -20 3 -23 14 -14 10 8 21 8 45 0 53 -19 181 -7 226 21 81 50 100
192 31 249 -15 13 -15 11 -1 -15 38 -74 4 -183 -68 -214 -54 -24 -123 -32
-167 -21 -32 8 -30 9 26 10 42 1 74 8 105 24 110 57 119 225 16 275 -23 12
-50 23 -60 26 -11 4 -17 13 -15 23 5 28 65 29 94 2 13 -12 24 -19 24 -14 0 5
14 -4 30 -20 l30 -29 0 78 c0 49 -4 75 -10 71 -5 -3 -10 -31 -10 -62 0 -55 0
-56 -20 -38 -16 14 -20 31 -20 79 0 56 -2 61 -22 63 -13 0 -50 4 -83 7 -33 3
-77 1 -99 -4z m82 -86 c-17 -9 -28 -23 -28 -35 0 -25 -23 -20 -28 5 -7 33 6
46 45 46 l38 -1 -27 -15z"/>
<path d="M8257 3760 c-65 -17 -116 -49 -144 -91 -24 -36 -28 -53 -31 -133 -4
-115 15 -159 103 -229 73 -58 115 -70 222 -65 148 8 214 73 222 217 2 41 -2
92 -9 114 -14 46 -56 107 -75 107 -6 0 -20 10 -31 21 -43 49 -175 79 -257 59z
m82 -81 c-14 -5 -32 -22 -39 -37 -18 -37 -25 -212 -11 -254 l12 -33 -23 23
c-21 21 -23 31 -23 140 0 143 12 172 73 171 35 -1 36 -1 11 -10z m242 -56 c26
-53 31 -164 11 -224 -14 -40 -74 -103 -114 -118 -43 -16 -140 -23 -183 -13
-39 10 -38 10 26 11 119 2 201 47 237 131 20 47 20 174 -1 223 -23 53 -3 46
24 -10z m-184 0 c13 -64 7 -196 -11 -230 -15 -31 -51 -52 -64 -38 -13 13 -14
215 -2 246 12 28 45 59 62 59 4 0 11 -17 15 -37z"/>
<path d="M5238 3728 l32 -34 0 -169 0 -169 -32 -33 -32 -33 180 0 180 0 33 28
c30 25 35 35 39 85 5 66 22 67 22 1 0 -110 -43 -134 -238 -134 -83 0 -143 -4
-147 -10 -4 -7 53 -10 165 -10 136 0 177 3 201 16 34 17 59 66 59 116 0 42
-35 102 -56 94 -12 -4 -12 -2 -4 14 6 11 14 20 19 20 13 0 31 49 31 86 0 51
-33 108 -53 92 -2 -2 -17 13 -34 32 l-31 35 -184 3 -183 3 33 -33z m222 -48
c10 -6 11 -10 3 -10 -9 0 -13 -18 -13 -55 0 -30 -4 -55 -10 -55 -6 0 -10 28
-10 65 0 66 3 72 30 55z m190 -66 c0 -44 -30 -94 -56 -94 -20 0 -17 12 11 39
20 19 25 33 25 75 0 36 3 47 10 36 5 -8 10 -34 10 -56z m-187 -141 c-8 -3 -13
-25 -13 -59 0 -30 -4 -54 -10 -54 -6 0 -10 27 -10 60 0 56 2 60 23 59 12 0 16
-3 10 -6z"/>
<path d="M5868 3727 l32 -33 0 -172 0 -172 -32 -30 -33 -29 147 -1 c87 0 149
-4 153 -10 4 -6 -36 -10 -114 -10 -69 0 -122 -4 -126 -10 -4 -6 44 -10 137
-10 l143 1 -32 29 -33 30 0 170 0 170 33 30 32 29 -27 1 c-15 0 -37 -8 -48
-17 -19 -16 -20 -30 -20 -186 0 -110 -3 -166 -10 -162 -6 4 -10 75 -10 180 l0
174 30 21 c17 12 30 26 30 31 0 5 -61 9 -142 9 l-142 0 32 -33z"/>
<path d="M6830 3684 l0 -76 26 31 c20 25 33 31 62 30 21 0 30 -3 22 -6 -31
-11 -50 -37 -50 -67 l0 -30 30 34 29 35 1 -140 0 -139 -32 -33 -32 -33 151 0
c91 0 154 -4 158 -10 4 -6 -36 -10 -114 -10 -69 0 -122 -4 -126 -10 -4 -6 44
-10 136 -10 l143 0 -29 30 c-15 16 -31 28 -34 26 -3 -2 -5 72 -3 165 3 156 4
169 21 169 10 0 24 -7 31 -15 20 -25 25 -10 22 64 l-4 71 -204 0 -204 0 0 -76z
m333 -21 c-23 -4 -23 -6 -23 -170 0 -146 -2 -164 -15 -153 -12 10 -15 42 -15
171 l0 159 38 -1 c23 -1 28 -3 15 -6z"/>
<path d="M7448 3727 l32 -33 0 -172 0 -172 -32 -30 -33 -29 150 -1 c83 -1 196
-1 252 0 132 1 148 -17 17 -22 -53 -2 -97 -1 -99 1 -8 8 -251 -1 -259 -10 -6
-5 84 -9 244 -9 l253 0 -35 33 c-19 17 -50 65 -68 104 l-34 73 28 29 c32 34
44 93 27 143 -12 36 -81 101 -126 118 -15 6 -99 10 -188 10 l-161 0 32 -33z
m222 -47 c10 -6 11 -10 3 -10 -9 0 -13 -20 -13 -65 0 -37 -4 -65 -10 -65 -6 0
-10 32 -10 75 0 76 3 82 30 65z m200 -82 c0 -38 -6 -53 -34 -87 -27 -32 -35
-37 -40 -25 -4 10 5 29 24 50 25 29 30 43 30 87 0 37 3 48 10 37 5 -8 10 -36
10 -62z m-210 -216 c0 -26 -4 -41 -10 -37 -5 3 -10 30 -10 58 0 37 3 48 10 37
5 -8 10 -34 10 -58z m184 22 c3 -8 2 -12 -4 -9 -6 3 -10 10 -10 16 0 14 7 11
14 -7z m20 -40 c3 -8 2 -12 -4 -9 -6 3 -10 10 -10 16 0 14 7 11 14 -7z"/>
<path d="M7258 3659 c-2 -38 1 -54 15 -66 16 -15 17 -12 17 50 0 51 -3 67 -14
67 -10 0 -15 -15 -18 -51z"/>
</g>
</svg>
